<svg width="40" height="40" fill="none" xmlns="http://www.w3.org/2000/svg"><g clip-path="url(#clip0_3394_1986)"><rect width="40" height="40" rx="20" fill="#fff"/><path fill-rule="evenodd" clip-rule="evenodd" d="M22.045 39.897A20.23 20.23 0 0120 40C8.954 40 0 31.046 0 20a19.862 19.862 0 011.892-8.5C1.084 13.544.706 15.587.706 17.479c0 9.054 7.314 10.366 10.416 10.34 4.742-.05 10.265-2.37 14.931-6.658 0 0-.605 3.38-.782 4.414-.176 1.009.48 1.891 1.488 1.891h.404c1.034 0 1.79-.857 1.967-1.891l1.69-9.433c.201-1.059-.48-1.891-1.539-1.891H19.85c-1.06 0-2.018.555-2.195 1.614 0 .022-.015.096-.032.177-.02.1-.043.21-.043.252-.152 1.008.555 1.765 1.563 1.765h4.919l-.227.227c-3.405 3.203-7.617 4.968-11.098 4.968-3.455 0-7.339-2.194-7.339-7.112C5.397 5.927 14.981 0 20 0c11.021 0 20 8.953 20 20 0 .71-.037 1.411-.11 2.102-.98 9.386-8.451 16.84-17.845 17.795z" fill="#DF2127"/></g><defs><clipPath id="clip0_3394_1986"><rect width="40" height="40" rx="20" fill="#fff"/></clipPath></defs></svg>