<svg width="40" height="40" fill="none" xmlns="http://www.w3.org/2000/svg"><rect width="40" height="40" rx="20" fill="#813FD6"/><path d="M21.45 7.881a.3.3 0 01.146.038l7.936 4.495a.29.29 0 01.139.177l2.44 8.786a.289.289 0 01-.028.222l-4.492 7.939a.293.293 0 01-.177.138l-8.788 2.438a.288.288 0 01-.224-.026l-7.938-4.498a.289.289 0 01-.137-.177l-2.44-8.786a.288.288 0 01.028-.223l4.489-7.935a.295.295 0 01.177-.14l8.788-2.438a.34.34 0 01.079-.01m0-.881c-.106 0-.212.014-.314.043L12.35 9.48a1.17 1.17 0 00-.71.558l-4.487 7.93a1.18 1.18 0 00-.11.894l2.44 8.786c.082.299.278.553.546.709l7.938 4.49c.271.153.592.193.893.11l8.788-2.44a1.174 1.174 0 00.709-.553l4.492-7.936a1.17 1.17 0 00.109-.892L30.52 12.35a1.179 1.179 0 00-.554-.709l-7.936-4.49A1.171 1.171 0 0021.45 7h-.003z" fill="#fff"/><path opacity=".7" d="M18.405 15.643h-.075l-1.264 3.709-.154.45a.676.676 0 000 .439l1.233 3.613a.689.689 0 00.396.415l.236.088 1.27-3.724.174-.507a.66.66 0 000-.434l-1.23-3.594a.672.672 0 00-.586-.455zM27.12 15.398h-2.663a.356.356 0 00-.337.243l-1.235 3.625-.102.3a1.025 1.025 0 000 .67l1.334 3.91a.33.33 0 00.332.223l.118-.012 2.893-8.485a.36.36 0 00-.34-.474z" fill="#fff"/><path d="M18.436 24.602H15.78a.358.358 0 01-.338-.243l-2.896-8.488a.357.357 0 01.338-.473h2.661a.357.357 0 01.34.243l2.896 8.488a.358.358 0 01-.344.473zM24.224 24.602h-2.662a.356.356 0 01-.338-.243l-2.895-8.488a.357.357 0 01.337-.473h2.666a.358.358 0 01.337.243l2.896 8.488a.36.36 0 01-.341.473z" fill="#fff"/></svg>